<?xml version="1.0" encoding="UTF-8"?>
<svg id="Calque_1" data-name="Calque 1" xmlns="http://www.w3.org/2000/svg" viewBox="0 0 566.93 566.93">
  <defs>
    <style>
      .cls-1 {
        fill: none;
      }

      .cls-2 {
        fill: #e49fac;
      }
    </style>
  </defs>
  <rect class="cls-1" x="45.22" y="50.08" width="505" height="466.76"/>
  <path class="cls-2" d="M302.63,59.08l190.2,385.2,23.4,46.8c1.8,3.6.6,9-6,9h-81.6c-6,0-10.2-4.2-12-7.8-8.4-17.4-17.4-35.4-25.8-52.8l-7.8-16.8h-205.8l-7.2,15c-8.4,18-17.4,36.6-26.4,54.6-1.8,3.6-6,7.8-12,7.8H57.82c-6,0-7.8-5.4-6-9,8.4-16.2,16.8-33,24.6-49.2L265.43,59.08c5.4-10.8,11.4-13.8,18.6-13.8,6.6,0,13.2,3.6,18.6,13.8ZM345.83,344.68l-65.4-136.2-65.4,136.2h130.8Z"/>
</svg>