<?xml version="1.0" encoding="UTF-8"?>
<svg id="Calque_1" data-name="Calque 1" xmlns="http://www.w3.org/2000/svg" viewBox="0 0 566.93 566.93">
  <defs>
    <style>
      .cls-1 {
        fill: none;
      }

      .cls-2 {
        fill: #1d1d1b;
      }
    </style>
  </defs>
  <rect class="cls-1" x="52.56" y="50.08" width="480.67" height="466.76"/>
  <path class="cls-2" d="M272.76,491.08L82.56,105.88l-23.4-46.8c-1.8-3.6-.6-9,6-9h81.6c6,0,10.2,4.2,12,7.8,8.4,17.4,17.4,35.4,25.8,52.8l110.4,231,110.4-229.2c8.4-18,17.4-36.6,26.4-54.6,1.8-3.6,6-7.8,12-7.8h73.8c6,0,7.8,5.4,6,9-8.4,16.2-16.8,33-24.6,49.2l-189,382.8c-5.4,10.8-11.4,13.8-18.6,13.8-6.6,0-13.2-3.6-18.6-13.8Z"/>
</svg>