<?xml version="1.0" encoding="UTF-8"?>
<svg id="Calque_1" data-name="Calque 1" xmlns="http://www.w3.org/2000/svg" viewBox="0 0 566.93 566.93">
  <defs>
    <style>
      .cls-1 {
        fill: none;
      }

      .cls-2 {
        fill: #e49fac;
      }
    </style>
  </defs>
  <rect class="cls-1" x="61.93" y="50.08" width="443.07" height="466.76"/>
  <path class="cls-2" d="M121.93,492.88V57.28c0-4.2,3-7.2,7.2-7.2h256.2c4.2,0,7.2,3,7.2,7.2v66.6c0,4.2-3,7.2-7.2,7.2h-172.2c-2.4,0-4.2,1.2-4.2,4.2v49.2h176.4c4.2,0,7.2,3,7.2,7.2v66.6c0,4.2-3,7.2-7.2,7.2h-176.4v149.4c0,2.4,1.8,4.2,4.2,4.2h208.2c4.2,0,7.2,3,7.2,7.2v66.6c0,4.2-3,7.2-7.2,7.2H129.13c-4.2,0-7.2-3-7.2-7.2Z"/>
</svg>